<svg height="512pt" viewBox="0 0 512 512" width="512pt" xmlns="http://www.w3.org/2000/svg"><path d="m392.214844 224.679688-14.777344-2.589844-1.695312 9.675781h-10.972657l1.242188-7.085937-14.773438-2.589844-1.699219 9.675781h-10.96875l1.242188-7.085937-14.777344-2.589844-1.695312 9.675781h-10.96875l1.242187-7.085937-14.777343-2.589844-1.695313 9.675781h-16.21875v-13.253906l-57.515625-33.203125v-6.128906l-24.960938-24.960938h-49.46875v15h43.257813l16.171875 16.175781v141.214844l-16.171875 16.171875h-43.257813v15h49.46875l24.960938-24.960938v-6.121093l57.515625-33.105469v-13.359375h7.722656l-1.242187 7.089844 14.777344 2.589843 1.695312-9.679687h10.96875l-1.242188 7.089844 14.777344 2.589843 1.695313-9.679687h10.972656l-1.242187 7.089844 14.773437 2.589843 1.699219-9.679687h10.96875l-1.242188 7.089844 14.777344 2.589843 1.695312-9.679687h16.523438v-15h-13.898438l3.238282-18.46875h10.660156v-15h-8.03125zm-126.296875 60.238281-42.511719 24.472656v-45.890625h25.710938v-15h-25.710938v-45.871094l42.511719 24.542969zm25.355469-19.683594h-10.355469v-18.46875h13.59375zm26.199218 0h-10.96875l3.238282-18.46875h10.96875zm26.203125 0h-10.972656l3.238281-18.46875h10.96875zm26.199219 0h-10.972656l3.238281-18.46875h10.972656zm0 0"/><path d="m160.101562 305.066406h-23.625v-22.710937h23.625v-15h-23.625v-22.710938h23.625v-15h-23.625v-22.714843h23.625v-15h-23.625v-37.355469l-24.957031-24.960938h-111.519531v252.773438h111.519531l24.957031-24.960938v-37.355469h23.625zm-38.625 46.144532-16.171874 16.175781h-90.304688v-222.773438h90.304688l16.171874 16.175781zm0 0"/><path d="m411.5 0v512h100.5v-512zm85.5 497h-70.5v-482h70.5zm0 0"/><path d="m352.898438 183.777344 10.605468-10.609375 30.398438 30.398437-10.605469 10.605469zm0 0"/><path d="m352.898438 328.246094 30.402343-30.390625 10.601563 10.609375-30.398438 30.390625zm0 0"/><path d="m87.199219 196.878906h15v15h-15zm0 0"/><path d="m87.199219 221.878906h15v118.242188h-15zm0 0"/><path d="m87.199219 171.878906h15v15h-15zm0 0"/><path d="m176.871094 239.636719h15v82.726562h-15zm0 0"/><path d="m176.871094 189.636719h15v15h-15zm0 0"/><path d="m176.871094 214.636719h15v15h-15zm0 0"/><path d="m472 396.332031h15v89.335938h-15zm0 0"/><path d="m472 371.332031h15v15h-15zm0 0"/><path d="m472 346.332031h15v15h-15zm0 0"/></svg>