<?xml version="1.0" encoding="iso-8859-1"?>
<!-- Generator: Adobe Illustrator 18.0.0, SVG Export Plug-In . SVG Version: 6.00 Build 0)  -->
<!DOCTYPE svg PUBLIC "-//W3C//DTD SVG 1.1//EN" "http://www.w3.org/Graphics/SVG/1.1/DTD/svg11.dtd">
<svg version="1.1" id="Capa_1" xmlns="http://www.w3.org/2000/svg" xmlns:xlink="http://www.w3.org/1999/xlink" x="0px" y="0px"
	 viewBox="0 0 297 297" style="enable-background:new 0 0 297 297;" xml:space="preserve">
<g>
	<path d="M255.289,120.777c5.542,0,10.051-4.509,10.051-10.051c0-5.542-4.509-10.051-10.051-10.051s-10.051,4.509-10.051,10.051
		C245.239,116.268,249.748,120.777,255.289,120.777z"/>
	<path d="M255.289,148.75c5.542,0,10.051-4.509,10.051-10.051s-4.509-10.051-10.051-10.051s-10.051,4.509-10.051,10.051
		S249.748,148.75,255.289,148.75z"/>
	<path d="M74.07,63.391l-5.916,5.916c-3.268-1.656-6.958-2.596-10.865-2.596c-13.301,0-24.122,10.821-24.122,24.122
		s10.821,24.122,24.122,24.122s24.122-10.821,24.122-24.122c0-3.907-0.94-7.597-2.596-10.865l5.916-5.916
		c2.944-2.945,2.944-7.717,0-10.661C81.787,60.449,77.015,60.449,74.07,63.391z M57.289,99.879c-4.988,0-9.046-4.058-9.046-9.046
		s4.058-9.046,9.046-9.046s9.046,4.058,9.046,9.046S62.277,99.879,57.289,99.879z"/>
	<path d="M74.07,129.726l-5.916,5.916c-3.268-1.656-6.958-2.596-10.865-2.596c-13.301,0-24.122,10.821-24.122,24.122
		c0,13.301,10.821,24.122,24.122,24.122s24.122-10.821,24.122-24.122c0-3.907-0.94-7.597-2.596-10.865l5.916-5.916
		c2.944-2.945,2.944-7.717,0-10.661C81.787,126.784,77.015,126.784,74.07,129.726z M57.289,166.214
		c-4.988,0-9.046-4.058-9.046-9.046s4.058-9.046,9.046-9.046s9.046,4.058,9.046,9.046S62.277,166.214,57.289,166.214z"/>
	<path d="M296.69,98.272L270.736,10.55c-0.947-3.202-3.889-5.399-7.228-5.399h-40.381c-4.164,0-7.538,3.374-7.538,7.538v9.046
		h-51.51c-4.164,0-7.538,3.374-7.538,7.538V62.44v33.168c0,4.164,3.374,7.538,7.538,7.538s7.538-3.374,7.538-7.538V69.978h43.972
		v90.708h-18.091v-25.629c0-4.164-3.374-7.538-7.538-7.538h-49.751c-4.164,0-7.538,3.374-7.538,7.538v25.629h-18.091V35.555
		c0-4.164-3.374-7.538-7.538-7.538H40.873c-1.999,0-3.916,0.794-5.331,2.207L2.207,63.559C0.794,64.974,0,66.891,0,68.89v215.421
		c0,4.164,3.374,7.538,7.538,7.538h55.279c3.245,0,6.126-2.076,7.151-5.154l9.337-28.014h138.388l9.337,28.014
		c1.026,3.078,3.906,5.154,7.151,5.154h55.279c4.164,0,7.538-3.374,7.538-7.538v-183.9C297,99.686,296.896,98.966,296.69,98.272z
		 M171.617,54.902V36.811h43.972v18.091H171.617z M147.746,142.595h34.675v18.091h-34.675V142.595z M223.127,175.763
		c4.164,0,7.538-3.374,7.538-7.538V20.227h27.212l24.047,81.275v92.352H114.579v-18.091H223.127z M15.076,72.012l28.919-28.919
		h55.507v125.132v25.629H15.076V72.012z M281.924,276.773h-42.308l-9.337-28.014c-1.026-3.078-3.906-5.154-7.151-5.154H73.873
		c-3.245,0-6.126,2.076-7.151,5.154l-9.337,28.014H15.076V208.93h266.848V276.773z"/>
	<path d="M64.576,220.74H31.409c-4.164,0-7.538,3.374-7.538,7.538s3.374,7.538,7.538,7.538h33.168c4.164,0,7.538-3.374,7.538-7.538
		S68.74,220.74,64.576,220.74z"/>
</g>
<g>
</g>
<g>
</g>
<g>
</g>
<g>
</g>
<g>
</g>
<g>
</g>
<g>
</g>
<g>
</g>
<g>
</g>
<g>
</g>
<g>
</g>
<g>
</g>
<g>
</g>
<g>
</g>
<g>
</g>
</svg>
