<svg height="512" viewBox="0 0 60 61" width="512" xmlns="http://www.w3.org/2000/svg"><g id="025---Milling" transform="translate(-1)"><path id="Shape" d="m58 10v-7c0-1.1045695-.8954305-2-2-2h-30c-1.1045695 0-2 .8954305-2 2v7c0 1.1045695.8954305 2 2 2h3v5c0 .39-.4-.41 6.85 12 .2561931.4342251.6669309.7556721 1.15.9v17.1c.0017306.3345191.1706148.6460165.45.83 3.26 2.17 3.14 2.17 3.55 2.17s.27 0 3.55-2.17c.2793852-.1839835.4482694-.4954809.45-.83v-17.09c.4830691-.1443279.8938069-.4657749 1.15-.9 7.24-12.41 6.85-11.62 6.85-12.01v-5h3c1.1045695 0 2-.8954305 2-2zm-15 26.46-4 2.67v-2.59l4-2.67zm-4 5.08 4-2.67v2.59l-4 2.67zm4-10.08-4 2.67v-4.13h4zm-2 16.34-2-1.3 4-2.63v2.59zm10-31.8h-11c-.5522847 0-1 .4477153-1 1s.4477153 1 1 1h10.26l-5.83 10h-6.86l-5.83-10h3.26c.5522847 0 1-.4477153 1-1s-.4477153-1-1-1h-4v-4h20zm5-6h-30v-7h2v2c0 .55228475.4477153 1 1 1s1-.44771525 1-1v-2h2v2c0 .55228475.4477153 1 1 1s1-.44771525 1-1v-2h2v2c0 .55228475.4477153 1 1 1s1-.44771525 1-1v-2h2v2c0 .55228475.4477153 1 1 1s1-.44771525 1-1v-2h2v2c0 .55228475.4477153 1 1 1s1-.44771525 1-1v-2h2v2c0 .55228475.4477153 1 1 1s1-.44771525 1-1v-2h2v2c0 .55228475.4477153 1 1 1s1-.44771525 1-1v-2h2z"/><path id="Shape" d="m60 46h-8.5c-1.1688407.0215823-2.2186865.7201786-2.69 1.79-1.22 2.56-8.21 5.21-17.81 5.21s-16.6-2.65-17.81-5.21c-.4713135-1.0698214-1.5211593-1.7684177-2.69-1.79h-8.5c-.55228475 0-1 .4477153-1 1v13c0 .5522847.44771525 1 1 1h58c.5522847 0 1-.4477153 1-1v-13c0-.5522847-.4477153-1-1-1zm-1 13h-56v-11h7.5c.3938848.0211045.7385631.2717796.88.64 1.78 3.75 9.85 6.36 19.62 6.36s17.84-2.61 19.62-6.36c.1414369-.3682204.4861152-.6188955.88-.64h7.5z"/><path id="Shape" d="m33.29 46.71c.3921222.3921221 1.0278778.3921221 1.42 0 .3921221-.3921222.3921221-1.0278778 0-1.42l-8-8c-.2536586-.2536586-.623374-.3527235-.969878-.259878-.3465041.0928454-.6171546.3634959-.71.71-.0928455.346504.0062194.7162194.259878.969878z"/><path id="Shape" d="m47.29 46.71c.1877666.1893127.4433625.2957983.71.2957983s.5222334-.1064856.71-.2957983l8-8c.2536586-.2536586.3527235-.623374.259878-.969878-.0928454-.3465041-.3634959-.6171546-.71-.71-.346504-.0928455-.7162194.0062194-.969878.259878l-8 8c-.1893127.1877666-.2957983.4433625-.2957983.71s.1064856.5222334.2957983.71z"/><circle id="Oval" cx="23" cy="35" r="1"/><circle id="Oval" cx="59" cy="35" r="1"/><path id="Shape" d="m34 40c.3824923-.001757.7304753-.221544.8964082-.5661738s.1207435-.7537221-.1164082-1.0538262l-4-5c-.209018-.3144469-.5773256-.4843547-.9522027-.4392706-.374877.0450842-.6923976.2974724-.8209007.6525109s-.0460757.7521844.2131034 1.0267597l4 5c.1886474.2387374.475728.3785972.78.38z"/><path id="Shape" d="m48 40c.304272-.0014028.5913526-.1412626.78-.38l4-5c.3426824-.4287515.2757366-1.0535791-.15-1.4-.2078446-.1666477-.473593-.2434734-.7382977-.213436s-.5064822.1644547-.6717023.373436l-4 5c-.2371517.3001041-.2823411.7091964-.1164082 1.0538262s.5139159.5644168.8964082.5661738z"/><path id="Shape" d="m16.43 44.6c.7344506.312231 1.5630393.3189541 2.3024596.0186819.7394204-.3002723 1.3287238-.8827891 1.6375404-1.6186819 2.2384457-4.9247723.2471764-10.740682-4.54-13.26-2.0857307-1.0386363-2.9500364-3.5602704-1.94-5.66 2.2311155-4.9192556.2403335-10.7249723-4.54-13.24-2.08136063-1.0424608-2.94423905-3.55993083-1.94-5.66.47884498-.99413242.37329519-2.17088697-.27482179-3.06393577s-1.73416922-1.35821819-2.82777264-1.21116941-2.01820683.88257619-2.40740557 1.91510518c-2.24536536 4.92192055-.25749857 10.7407094 4.53 13.26 2.0870348 1.0426604 2.95087356 3.567385 1.94 5.67-2.23746796 4.9218847-.24579804 10.7345778 4.54 13.25 2.0870348 1.0426604 2.9508736 3.567385 1.94 5.67-.6460168 1.5215738.0605411 3.2790246 1.58 3.93zm-2.55-11.34c-3.8690741-2.0427573-5.47760812-6.7456375-3.67-10.73 1.4258993-3.0414326.1882925-6.6658524-2.8-8.2-3.87555118-2.0318893-5.49046232-6.73619565-3.68-10.72.15790507-.37287133.52508858-.61371212.93-.61.33346824.0035984.64319805.1731931.82586117.452206s.21421843.63072184.08413883.937794c-1.41882946 3.04435249-.17784225 6.6657387 2.81 8.2 3.8717786 2.0353696 5.4819967 6.7387857 3.67 10.72-1.4244137 3.0440541-.1820698 6.6693993 2.81 8.2 3.8690741 2.0427573 5.4776081 6.7456375 3.67 10.73-.1411199.3286843-.4468711.5571146-.80208.5992434-.355209.0421287-.705911-.1084444-.92-.395-.2140891-.2865556-.2590399-.6655591-.11792-.9942434 1.4235089-3.0411689.1807295-6.6633622-2.81-8.19z"/><path id="Shape" d="m26.79 18.89c-.6130361-1.5408744-2.3591255-2.293036-3.9-1.6799999-1.5408744.613036-2.293036 2.3591255-1.68 3.8999999 1 2.6.06 3.44.06 3.44-1.0671366.7541077-1.5234148 2.1122063-1.1280683 3.357662.3953465 1.2454558 1.5513707 2.0917593 2.8580683 2.092338.590482.000332 1.1679317-.1735986 1.66-.5.21-.14 5-3.43 2.13-10.61zm-3.24 8.94c-.4562975.3032166-1.071624.1828266-1.38-.27-.1525181-.2252047-.2067224-.5028194-.150119-.7688551.0566033-.2660357.2191302-.4975374.450119-.6411449.37-.28 2.14-1.94.6-5.78-.1321883-.332257-.0770783-.7097967.1445706-.9904036s.5761629-.4216501.93-.37.6532411.2881466.7854294.6204036c2.27 5.68-1.22 8.1-1.38 8.2z"/>
<path id="Shape" d="m7 35.67c-.13398647-1.3125295-1.10975428-2.3834672-2.40418662-2.638675-1.29443235-.2552078-2.60366717.3652231-3.22581338 1.528675-.28854733.5176789-.41729578 1.1092258-.37 1.7 0 .24.6 6 8.28 7 1.6540928.1988225 3.1561775-.9809072 3.355-2.635s-.9809072-3.1561775-2.635-3.355c-2.75-.34-3-1.6-3-1.6zm3.67 4.69c-.029982.2660282-.1653802.5089266-.3758874.6743251s-.47854368.2394846-.7441126.2056749c-6.09-.74-6.55-4.97-6.55-5.16-.04616229-.5492747.36085429-1.0323274.91-1.08.27029472-.024852.5390798.0612404.74463507.2385083.20555527.1772678.33021894.4304798.34536493.7014917.07.47.67 2.81 4.78 3.31.5459565.0677005.9346967.5636794.87 1.11z"/><path id="Shape" d="m7 55h-1c-.55228475 0-1 .4477153-1 1s.44771525 1 1 1h1c.55228475 0 1-.4477153 1-1s-.44771525-1-1-1z"/><path id="Shape" d="m18 55h-7c-.5522847 0-1 .4477153-1 1s.4477153 1 1 1h7c.5522847 0 1-.4477153 1-1s-.4477153-1-1-1z"/></g></svg>